<svg xmlns="http://www.w3.org/2000/svg" xmlns:xlink="http://www.w3.org/1999/xlink" version="1.1" x="0px" y="0px" viewBox="0 0 100 125" style="enable-background:new 0 0 100 100;" xml:space="preserve"><g><path d="M78.9,15c2.8-0.8,4.2-1.7,4.2-2.8c0-0.3-0.1-0.6-0.4-0.9c0.2-0.3,0.4-0.6,0.4-0.9c0-3.9-19.8-5.4-33-5.4   c-13.3,0-33,1.4-33,5.4c0,0.3,0.1,0.6,0.4,0.9c-0.2,0.3-0.4,0.6-0.4,0.9c0,1.1,1.3,2,4.2,2.8c0,14.2,7.6,29.3,17.5,35   C30,54.1,21.1,68.7,21.1,85c-2.8,0.8-4.2,1.7-4.2,2.8c0,0.3,0.1,0.6,0.4,0.9c-0.2,0.3-0.4,0.6-0.4,0.9c0,3.9,19.8,5.4,33,5.4   c13.3,0,33-1.4,33-5.4c0-0.3-0.1-0.6-0.4-0.9c0.2-0.3,0.4-0.6,0.4-0.9c0-1.1-1.3-2-4.2-2.8c0-15.5-9-30-17.6-35   C70,44.1,78.9,29.7,78.9,15z M78.8,14c0-1.2-0.1-2.3-0.2-3.6c2.2,0.6,3.4,1.2,3.4,1.8C82,12.3,81.9,13.1,78.8,14z M50,6.1   c19.9,0,32,2.5,32,4.4c0,0.1-0.1,0.2-0.1,0.3C77.6,7.9,61.4,6.9,50,6.9S22.4,8,18.1,10.8C18,10.6,18,10.5,18,10.4   C18,8.6,30.1,6.1,50,6.1z M18,12.2c0-0.6,1.2-1.2,3.4-1.8c-0.1,1.2-0.2,2.4-0.2,3.6C18.1,13.1,18,12.3,18,12.2z M21.2,86   c0,1.2,0.1,2.3,0.2,3.6C19.1,89,18,88.3,18,87.8C18,87.7,18.1,86.9,21.2,86z M50,93.9c-19.9,0-32-2.5-32-4.4c0-0.1,0.1-0.2,0.1-0.3   c4.3,2.8,20.5,3.9,31.9,3.9s27.6-1.1,31.9-3.9c0.1,0.1,0.1,0.2,0.1,0.3C82,91.4,69.9,93.9,50,93.9z M82,87.8c0,0.6-1.2,1.2-3.4,1.8   c0.1-1.2,0.2-2.4,0.2-3.6C81.9,86.9,82,87.7,82,87.8z M60,49.6c-0.2,0.1-0.2,0.3-0.2,0.4c0,0.2,0.1,0.3,0.3,0.4   c8.6,4.5,17.8,19,17.8,34.6c0,1.6-0.1,3.1-0.2,4.8c-5.2,1.2-14.8,2.3-27.6,2.3S27.7,91,22.5,89.8c-0.2-1.7-0.2-3.3-0.2-4.8   c0-13,7.3-30.4,17.8-34.6c0.2-0.1,0.3-0.2,0.3-0.4s-0.1-0.4-0.3-0.5c-8.9-4.4-18-18.5-18-34.5c0-1.6,0.1-3.1,0.2-4.8   C27.6,8.9,37.2,7.9,50,7.9S72.4,9,77.6,10.2c0.2,1.7,0.2,3.3,0.2,4.8C77.9,29.5,68.6,44.3,60,49.6z"/><path d="M65.6,31.7l-4.4-3c0.1-0.9,0-1.8-0.1-2.7l4.5-3.1c0.3-0.2,0.2-0.9-0.3-0.9l-5.6,0.2c-0.4-0.7-0.9-1.3-1.5-1.9   c0,0,1.4-4.1,1.9-5.4c0.2-0.6-0.3-1-0.8-0.6c-1.1,0.9-4.6,3.5-4.6,3.5c-0.3-0.2-1.6-0.6-2.2-0.7l-1.6-5.5c-0.1-0.6-0.8-0.7-1,0   L48.3,17c-0.8,0.2-1.6,0.4-2.4,0.7c0,0-3.3-2.6-4.4-3.4c-0.4-0.3-1,0.1-0.8,0.6c0.4,1.3,1.8,5.1,1.8,5.1c-0.7,0.7-1.3,1.4-1.8,2.2   c0,0-3.9-0.2-5.2-0.2c-0.6,0-0.8,0.6-0.3,0.9c1,0.7,4.2,2.8,4.2,2.8c-0.2,1.1-0.2,2.2-0.1,3.3l-4,2.8c-0.5,0.3-0.2,0.9,0.2,0.9   l4.7-0.1c0.5,1.1,1.2,2.1,2,2.9l-1.5,4.4c-0.2,0.6,0.5,0.8,0.8,0.6l3.6-2.8c0.6,0.6,2.8,1.2,3.5,1.1l1.3,4.4c0.2,0.6,0.9,0.4,1,0   l1.3-4.5c1.1-0.2,2.2-0.6,3.3-1.2l3.8,2.9c0.4,0.3,1,0.1,0.8-0.6l-1.7-4.7c0.7-0.8,1.3-1.7,1.7-2.6l5.1,0.1l0,0   C65.8,32.6,66,32,65.6,31.7z"/></g><text x="0" y="115" fill="#000000" font-size="5px" font-weight="bold" font-family="'Helvetica Neue', Helvetica, Arial-Unicode, Arial, Sans-serif">Created by Adriano Vabeni</text><text x="0" y="120" fill="#000000" font-size="5px" font-weight="bold" font-family="'Helvetica Neue', Helvetica, Arial-Unicode, Arial, Sans-serif">from the Noun Project</text></svg>