<svg xmlns="http://www.w3.org/2000/svg" xmlns:xlink="http://www.w3.org/1999/xlink" version="1.1" x="0px" y="0px" viewBox="0 0 100 125" style="enable-background:new 0 0 100 100;" xml:space="preserve"><g><path d="M78.9,15c2.8-0.8,4.2-1.7,4.2-2.8c0-0.3-0.1-0.6-0.4-0.9c0.2-0.3,0.4-0.6,0.4-0.9c0-3.9-19.8-5.4-33-5.4s-33,1.4-33,5.4   c0,0.3,0.1,0.6,0.4,0.9c-0.2,0.3-0.4,0.6-0.4,0.9c0,1.1,1.3,2,4.2,2.8c0,14.2,7.6,29.3,17.5,35C30,54.1,21.1,68.7,21.1,85   c-2.8,0.8-4.2,1.7-4.2,2.8c0,0.3,0.1,0.6,0.4,0.9c-0.2,0.3-0.4,0.6-0.4,0.9c0,3.9,19.8,5.4,33,5.4s33-1.4,33-5.4   c0-0.3-0.1-0.6-0.4-0.9c0.2-0.3,0.4-0.6,0.4-0.9c0-1.1-1.3-2-4.2-2.8c0-15.5-9-30-17.6-35C70,44.1,78.9,29.7,78.9,15z M78.8,14   c0-1.1-0.1-2.3-0.2-3.5c2.2,0.6,3.4,1.2,3.4,1.8C82,12.3,82,13.1,78.8,14z M50,6.1c19.8,0,32,2.5,32,4.4c0,0.1-0.1,0.2-0.1,0.3   C77.6,7.9,61.4,6.9,50,6.9c-11.4,0-27.6,1-31.9,3.9C18,10.6,18,10.5,18,10.4C18,8.6,30.2,6.1,50,6.1z M21.2,14   c-3.1-0.9-3.2-1.6-3.2-1.7c0-0.6,1.2-1.2,3.4-1.8C21.2,11.6,21.2,12.8,21.2,14z M21.2,86c0,1.1,0.1,2.3,0.2,3.5   C19.1,89,18,88.3,18,87.8C18,87.7,18,86.9,21.2,86z M78.8,86c3.1,0.9,3.2,1.6,3.2,1.7c0,0.6-1.2,1.2-3.4,1.8   C78.8,88.4,78.8,87.2,78.8,86z M81.9,89.3c0.1,0.1,0.1,0.2,0.1,0.3c0,1.8-12.2,4.4-32,4.4s-32-2.5-32-4.4c0-0.1,0.1-0.2,0.1-0.3   c4.3,2.8,20.5,3.9,31.9,3.9C61.4,93.1,77.6,92.1,81.9,89.3z M63.6,82.8c0.2,0,0.3,0.1,0.4,0.3c0.1,0.2,0,0.3,0,0.5   c-3,4.6-8.1,7.3-13.6,7.3c-9,0-16.3-7.3-16.3-16.3s7.3-16.3,16.3-16.3c0.9,0,1.8,0.1,2.7,0.2c0.2,0,0.3,0.1,0.4,0.3   c0.1,0.2,0,0.3,0,0.5c-1.7,2.5-2.6,5.4-2.6,8.5C50.9,75.2,56.2,81.5,63.6,82.8z M60,49.6C60,49.6,60,49.6,60,49.6   C60,49.6,60,49.6,60,49.6c-3.5,2.4-6.6,2.8-7.7,1.9c-0.8-0.6-0.5-1.8-0.1-2.7c2-4.7,2.4-8.5,1-10.2c-0.6-0.7-1.4-1.1-2.3-1   c-1.3,0.2-2.6,1.3-3.2,3c-2.2,5.6-5.9,8.2-7.9,8.9C31.1,44.9,22.1,30.9,22.1,15c0-1.5,0.1-3.1,0.2-4.8C27.6,8.9,37.2,7.9,50,7.9   s22.4,1.1,27.6,2.3c0.2,1.7,0.2,3.3,0.2,4.8C77.9,29.5,68.6,44.3,60,49.6z"/></g><text x="0" y="115" fill="#000000" font-size="5px" font-weight="bold" font-family="'Helvetica Neue', Helvetica, Arial-Unicode, Arial, Sans-serif">Created by Adriano Vabeni</text><text x="0" y="120" fill="#000000" font-size="5px" font-weight="bold" font-family="'Helvetica Neue', Helvetica, Arial-Unicode, Arial, Sans-serif">from the Noun Project</text></svg>